<svg width="1085.217" height="184.612" viewBox="-50 -50 1185.217 284.612" xmlns="http://www.w3.org/2000/svg"><g id="svgGroup" stroke-linecap="round" fill-rule="evenodd" font-size="9pt" stroke="#000000" stroke-width="0.25mm" fill="#000000" style="stroke:#000000;stroke-width:0.25mm;fill:#000000"><path d="M 768.007 60.603 L 755.807 117.803 Q 753.807 127.803 753.807 135.003 Q 753.807 143.403 757.707 147.603 Q 761.607 151.803 768.607 151.803 Q 775.207 151.803 781.507 147.403 A 54.678 54.678 0 0 0 788.15 141.779 A 119.058 119.058 0 0 0 791.356 138.505 A 186.333 186.333 0 0 1 792.321 125.612 A 144.308 144.308 0 0 1 793.207 119.103 Q 795.207 106.603 799.807 92.603 Q 801.807 86.603 805.407 84.003 Q 809.007 81.403 816.807 81.403 Q 821.207 81.403 822.907 82.803 Q 824.607 84.203 824.607 87.003 Q 824.607 88.603 822.407 97.803 Q 820.407 105.203 819.207 111.203 Q 815.207 132.203 815.207 139.203 Q 815.207 143.403 816.207 145.103 Q 817.207 146.803 819.407 146.803 Q 822.407 146.803 826.907 140.803 Q 831.407 134.803 836.507 122.603 Q 841.607 110.403 846.407 92.603 Q 848.007 86.603 851.307 84.003 Q 854.607 81.403 861.207 81.403 Q 865.807 81.403 867.607 82.503 Q 869.407 83.603 869.407 86.603 Q 869.407 91.603 864.407 114.003 Q 858.807 139.603 858.807 145.603 Q 858.807 149.403 860.407 151.503 Q 862.007 153.603 864.607 153.603 Q 868.607 153.603 874.107 148.703 A 89.895 89.895 0 0 0 878.102 144.852 A 30.433 30.433 0 0 1 879.484 140.281 A 20.967 20.967 0 0 1 882.007 135.803 Q 886.607 129.603 895.007 129.603 Q 902.207 129.603 902.207 135.003 Q 902.207 136.403 901.807 140.003 Q 901.207 147.203 901.207 148.203 Q 901.207 154.203 906.407 154.203 Q 910.207 154.203 913.707 149.703 Q 917.207 145.203 919.507 137.403 Q 921.807 129.603 921.807 120.203 Q 921.807 113.003 920.007 108.103 Q 918.207 103.203 915.607 103.203 Q 913.407 103.203 912.407 104.303 Q 911.407 105.403 910.407 108.003 Q 909.207 111.203 907.207 113.103 Q 905.207 115.003 900.207 115.003 Q 895.807 115.003 893.207 111.903 Q 890.607 108.803 890.607 102.403 Q 890.607 92.203 896.807 86.403 Q 903.007 80.603 912.807 80.603 Q 921.207 80.603 928.007 84.703 Q 934.807 88.803 938.407 96.603 Q 944.407 88.603 951.907 84.603 Q 959.407 80.603 966.607 80.603 Q 974.407 80.603 978.507 84.203 A 12.675 12.675 0 0 1 981.218 87.957 A 15.783 15.783 0 0 1 982.273 84.378 A 7.805 7.805 0 0 1 990.007 80.003 L 1001.407 80.003 Q 1004.807 58.003 1011.807 39.803 Q 1018.807 21.603 1028.707 10.803 Q 1038.607 0.003 1050.007 0.003 Q 1058.407 0.003 1063.207 7.403 Q 1068.007 14.803 1068.007 26.003 Q 1068.007 57.003 1042.007 80.003 L 1064.407 80.003 Q 1067.607 80.003 1069.007 81.403 Q 1070.407 82.803 1070.407 86.603 Q 1070.407 100.403 1047.807 100.403 L 1023.407 100.403 Q 1023.007 110.403 1023.007 116.003 Q 1023.007 136.803 1027.907 145.203 Q 1032.807 153.603 1043.407 153.603 Q 1052.007 153.603 1058.607 148.403 Q 1065.207 143.203 1074.207 132.803 Q 1076.607 130.003 1079.607 130.003 Q 1082.207 130.003 1083.707 132.403 Q 1085.207 134.803 1085.207 139.003 Q 1085.207 147.003 1081.407 151.403 Q 1072.807 162.003 1062.607 168.803 Q 1052.407 175.603 1039.207 175.603 Q 1015.216 175.603 1005.332 155.755 A 59.246 59.246 0 0 1 1002.895 149.951 A 13.629 13.629 0 0 1 1001.807 151.403 Q 993.007 161.803 982.507 168.703 Q 972.007 175.603 958.807 175.603 Q 948.607 175.603 940.707 171.803 Q 932.807 168.003 928.207 161.003 Q 916.807 175.403 901.207 175.403 Q 890.207 175.403 883.807 169.003 A 22.525 22.525 0 0 1 881.339 165.979 A 90.634 90.634 0 0 1 879.962 167.043 A 75.897 75.897 0 0 1 877.507 168.803 Q 867.607 175.603 855.007 175.603 Q 845.407 175.603 840.907 168.203 Q 836.407 160.803 836.407 147.403 Q 833.007 161.003 826.207 168.303 Q 819.407 175.603 811.607 175.603 Q 802.607 175.603 796.907 167.303 A 33.409 33.409 0 0 1 793.915 161.703 A 99.555 99.555 0 0 1 793.257 162.303 A 60.149 60.149 0 0 1 783.007 169.803 Q 772.807 175.603 761.607 175.603 Q 744.607 175.603 735.007 165.503 Q 725.407 155.403 725.407 138.403 Q 725.407 131.803 726.507 124.003 Q 727.607 116.203 730.207 104.203 L 738.207 67.603 Q 738.607 65.803 739.607 61.203 Q 740.607 56.603 741.207 52.503 Q 741.807 48.403 741.807 44.403 Q 741.807 38.003 738.207 34.203 Q 734.607 30.403 728.007 30.403 Q 716.007 30.403 704.007 43.203 Q 692.007 56.003 681.807 84.503 Q 671.607 113.003 665.807 157.403 Q 664.407 167.603 661.707 171.603 Q 659.007 175.603 651.207 175.603 Q 643.807 175.603 640.607 172.303 Q 637.407 169.003 637.407 159.803 Q 637.407 153.603 638.607 144.803 Q 639.807 136.003 642.807 118.203 Q 643.207 115.803 646.007 98.703 Q 648.807 81.603 651.007 62.803 Q 653.007 46.803 653.007 38.803 Q 653.007 29.803 646.407 29.803 Q 641.407 29.803 633.907 35.103 Q 626.407 40.403 617.807 52.003 Q 615.007 55.803 611.607 55.803 Q 608.807 55.803 606.707 53.103 Q 604.607 50.403 604.607 47.003 Q 604.607 43.603 605.807 40.503 Q 607.007 37.403 610.207 33.003 Q 620.007 19.603 632.007 12.303 Q 644.007 5.003 657.207 5.003 Q 668.207 5.003 673.707 11.803 Q 679.207 18.603 679.207 31.603 Q 679.207 43.203 676.007 65.203 Q 686.007 35.603 701.407 20.303 Q 716.807 5.003 737.607 5.003 Q 754.007 5.003 762.307 14.303 Q 770.607 23.603 770.607 39.203 Q 770.607 48.003 768.007 60.603 Z M 255.007 151.403 Q 247.607 160.403 234.107 168.003 Q 220.607 175.603 205.207 175.603 Q 184.207 175.603 172.607 164.203 Q 161.007 152.803 161.007 133.003 Q 161.007 119.203 166.807 107.303 Q 172.607 95.403 182.907 88.403 Q 193.207 81.403 206.207 81.403 Q 217.807 81.403 224.807 88.303 Q 231.807 95.203 231.807 107.003 Q 231.807 120.803 221.907 130.703 Q 212.007 140.603 188.407 146.403 Q 193.407 155.603 207.407 155.603 Q 216.407 155.603 227.907 149.303 Q 239.407 143.003 247.807 132.803 A 7.02 7.02 0 0 1 251.114 130.389 A 100.677 100.677 0 0 1 250.823 126.242 A 144.669 144.669 0 0 1 250.607 118.203 Q 250.607 109.403 251.207 100.403 L 243.407 100.403 Q 237.407 100.403 235.307 98.203 Q 233.207 96.003 233.207 91.203 Q 233.207 80.003 242.207 80.003 L 253.607 80.003 Q 257.007 58.003 264.007 39.803 Q 271.007 21.603 280.907 10.803 Q 290.807 0.003 302.207 0.003 Q 310.607 0.003 315.407 7.403 Q 320.207 14.803 320.207 26.003 Q 320.207 57.003 294.207 80.003 L 311.392 80.003 A 7.805 7.805 0 0 1 312.807 80.003 L 316.607 80.003 A 6.329 6.329 0 0 1 317.798 80.003 L 324.207 80.003 Q 327.607 58.003 334.607 39.803 Q 341.607 21.603 351.507 10.803 Q 361.407 0.003 372.807 0.003 Q 381.207 0.003 386.007 7.403 Q 390.807 14.803 390.807 26.003 Q 390.807 57.003 364.807 80.003 L 387.207 80.003 Q 390.407 80.003 391.807 81.403 Q 393.207 82.803 393.207 86.603 Q 393.207 100.403 370.607 100.403 L 346.207 100.403 Q 345.807 110.403 345.807 116.003 Q 345.807 136.803 350.707 145.203 Q 355.607 153.603 366.207 153.603 Q 374.807 153.603 381.407 148.403 A 83.264 83.264 0 0 0 388.607 141.903 A 172.585 172.585 0 0 0 389.35 141.15 A 57.975 57.975 0 0 1 388.807 133.003 Q 388.807 119.203 394.607 107.303 Q 400.407 95.403 410.707 88.403 Q 421.007 81.403 434.007 81.403 Q 445.607 81.403 452.607 88.303 Q 459.607 95.203 459.607 107.003 Q 459.607 120.803 449.707 130.703 Q 439.807 140.603 416.207 146.403 Q 421.207 155.603 435.207 155.603 Q 444.207 155.603 455.707 149.303 A 67.705 67.705 0 0 0 470.837 138.04 A 163.888 163.888 0 0 1 477.096 96.275 A 153.885 153.885 0 0 1 478.207 92.603 Q 480.007 86.803 484.107 84.103 Q 488.207 81.403 495.607 81.403 Q 499.607 81.403 501.207 82.403 Q 502.807 83.403 502.807 86.203 Q 502.807 89.403 499.807 100.603 Q 497.807 108.603 496.607 114.603 Q 495.407 120.603 494.607 129.403 Q 501.207 112.203 509.407 101.403 Q 517.607 90.603 525.507 86.003 Q 533.407 81.403 540.007 81.403 Q 553.007 81.403 553.007 94.403 Q 553.007 97.003 551.207 107.003 Q 549.607 115.003 549.607 117.003 Q 549.607 124.003 554.607 124.003 Q 560.207 124.003 569.007 115.203 Q 571.607 112.603 574.407 112.603 Q 577.007 112.603 578.507 114.903 Q 580.007 117.203 580.007 121.003 Q 580.007 128.403 576.007 132.603 Q 570.407 138.403 562.907 142.503 Q 555.407 146.603 547.007 146.603 Q 536.407 146.603 530.907 141.203 Q 525.407 135.803 525.407 126.603 Q 525.407 123.603 526.007 120.603 Q 526.407 116.603 526.407 115.203 Q 526.407 112.003 524.207 112.003 Q 521.207 112.003 516.307 118.703 Q 511.407 125.403 506.607 136.403 Q 501.807 147.403 498.807 159.603 Q 496.607 169.003 493.707 172.303 Q 490.807 175.603 484.607 175.603 Q 477.007 175.603 473.907 167.603 A 38.575 38.575 0 0 1 472.201 161.359 A 61.704 61.704 0 0 1 471.524 161.852 A 95.603 95.603 0 0 1 461.907 168.003 Q 448.407 175.603 433.007 175.603 Q 412.007 175.603 400.407 164.203 A 38.376 38.376 0 0 1 396.589 159.753 A 85.515 85.515 0 0 1 386.083 168.347 A 74.468 74.468 0 0 1 385.407 168.803 Q 375.207 175.603 362.007 175.603 A 43.713 43.713 0 0 1 346.862 173.143 A 33.466 33.466 0 0 1 328.733 156.996 A 85.515 85.515 0 0 1 315.483 168.347 A 74.468 74.468 0 0 1 314.807 168.803 Q 304.607 175.603 291.407 175.603 Q 267.416 175.603 257.532 155.755 A 59.246 59.246 0 0 1 255.436 150.877 A 13.629 13.629 0 0 1 255.007 151.403 Z M 169.607 46.603 Q 169.607 63.603 157.607 75.903 Q 145.607 88.203 122.607 93.603 Q 135.007 97.003 141.407 104.703 Q 147.807 112.403 147.807 122.403 Q 147.807 138.203 137.907 149.803 Q 128.007 161.403 109.007 167.703 Q 90.007 174.003 63.207 174.003 Q 53.207 174.003 47.207 173.403 Q 47.007 179.003 42.407 181.803 Q 37.807 184.603 30.607 184.603 Q 23.407 184.603 20.707 181.403 Q 18.007 178.203 18.407 172.003 Q 20.207 144.003 25.407 113.303 Q 30.607 82.603 38.607 54.003 Q 40.007 49.003 44.207 47.003 Q 48.407 45.003 55.207 45.003 Q 67.407 45.003 67.407 51.803 Q 67.407 54.603 66.207 58.203 Q 61.007 73.803 55.807 100.503 Q 50.607 127.203 48.407 151.403 Q 58.007 152.203 64.007 152.203 Q 92.007 152.203 105.107 144.103 Q 118.207 136.003 118.207 123.403 Q 118.207 114.603 110.707 108.603 Q 103.207 102.603 85.607 102.003 Q 81.607 101.803 80.007 100.003 Q 78.407 98.203 78.407 94.203 Q 78.407 88.403 80.807 84.803 Q 83.207 81.203 89.607 81.003 Q 103.807 80.603 115.307 76.803 Q 126.807 73.003 133.407 66.103 Q 140.007 59.203 140.007 50.003 Q 140.007 38.403 128.607 31.703 Q 117.207 25.003 93.607 25.003 Q 72.207 25.003 52.207 30.503 Q 32.207 36.003 18.207 44.403 Q 11.807 48.203 7.407 48.203 Q 3.807 48.203 1.907 45.703 Q 0.007 43.203 0.007 39.403 Q 0.007 34.403 2.107 30.803 Q 4.207 27.203 12.207 22.603 Q 29.007 13.003 51.607 7.603 Q 74.207 2.203 97.807 2.203 Q 134.007 2.203 151.807 14.403 Q 169.607 26.603 169.607 46.603 Z M 981.279 105.529 A 31.705 31.705 0 0 0 982.595 97.522 A 8.967 8.967 0 0 0 983.107 98.203 Q 985.207 100.403 991.207 100.403 L 999.007 100.403 Q 998.407 109.403 998.407 118.203 A 144.669 144.669 0 0 0 998.623 126.242 A 100.677 100.677 0 0 0 998.89 130.127 A 7.02 7.02 0 0 0 994.607 132.803 Q 985.407 144.003 978.507 149.303 Q 971.607 154.603 963.807 154.603 Q 956.007 154.603 951.507 149.503 Q 947.007 144.403 947.007 135.003 Q 947.007 127.003 948.907 119.603 Q 950.807 112.203 953.507 107.703 Q 956.207 103.203 958.607 103.203 Q 960.607 103.203 961.407 104.403 Q 962.207 105.603 962.607 108.003 Q 963.407 111.403 965.007 113.203 Q 966.607 115.003 971.007 115.003 Q 975.807 115.003 979.207 109.903 A 17.626 17.626 0 0 0 981.279 105.529 Z M 300.007 100.403 A 63.597 63.597 0 0 0 304.278 100.266 A 35.879 35.879 0 0 0 308.724 99.761 A 17.286 17.286 0 0 0 314.007 100.403 L 321.807 100.403 Q 321.207 109.403 321.207 118.203 A 144.669 144.669 0 0 0 321.423 126.242 A 100.677 100.677 0 0 0 322.558 137.136 A 172.585 172.585 0 0 1 318.007 141.903 A 83.264 83.264 0 0 1 310.807 148.403 Q 304.207 153.603 295.607 153.603 Q 285.007 153.603 280.107 145.203 Q 275.207 136.803 275.207 116.003 Q 275.207 110.403 275.607 100.403 L 300.007 100.403 Z M 296.807 19.203 Q 301.207 19.203 301.207 31.003 Q 301.207 41.403 295.307 54.103 Q 289.407 66.803 277.607 77.003 Q 279.807 60.803 283.107 47.503 Q 286.407 34.203 290.107 26.703 Q 293.807 19.203 296.807 19.203 Z M 367.407 19.203 Q 371.807 19.203 371.807 31.003 Q 371.807 41.403 365.907 54.103 Q 360.007 66.803 348.207 77.003 Q 350.407 60.803 353.707 47.503 Q 357.007 34.203 360.707 26.703 Q 364.407 19.203 367.407 19.203 Z M 1044.607 19.203 Q 1049.007 19.203 1049.007 31.003 Q 1049.007 41.403 1043.107 54.103 Q 1037.207 66.803 1025.407 77.003 Q 1027.607 60.803 1030.907 47.503 Q 1034.207 34.203 1037.907 26.703 Q 1041.607 19.203 1044.607 19.203 Z M 185.207 130.403 Q 185.207 118.203 190.307 109.603 Q 195.407 101.003 202.807 101.003 Q 206.407 101.003 208.507 103.303 Q 210.607 105.603 210.607 109.403 Q 210.607 116.803 203.807 122.403 Q 197.007 128.003 185.207 130.803 L 185.207 130.403 Z M 413.007 130.403 Q 413.007 118.203 418.107 109.603 Q 423.207 101.003 430.607 101.003 Q 434.207 101.003 436.307 103.303 Q 438.407 105.603 438.407 109.403 Q 438.407 116.803 431.607 122.403 Q 424.807 128.003 413.007 130.803 L 413.007 130.403 Z"/></g></svg>